{"glyphs":{"0":{"ha":863,"x_min":41,"x_max":822,"o":"m 127 0 q 41 209 41 28 l 41 833 q 127 1042 41 1013 l 735 1042 q 822 833 822 1013 l 822 209 q 735 0 822 28 l 127 0 m 480 296 l 480 746 l 380 746 l 380 296 l 480 296 z "},"1":{"ha":863,"x_min":41,"x_max":822,"o":"m 762 0 l 100 0 q 41 41 49 4 l 41 255 q 100 296 49 292 l 263 296 l 263 746 l 100 746 q 41 787 49 750 l 41 1001 q 100 1042 49 1038 l 564 1042 q 605 982 601 1034 l 605 296 l 762 296 q 822 255 814 292 l 822 41 q 762 0 814 4 z "},"2":{"ha":863,"x_min":41,"x_max":822,"o":"m 41 293 q 91 498 47 453 l 464 661 q 480 705 480 671 l 480 749 l 382 749 l 382 705 q 342 646 378 654 l 81 646 q 41 705 45 654 l 41 833 q 127 1042 41 1013 l 735 1042 q 822 833 822 1013 l 822 749 q 772 544 815 589 l 399 381 q 382 336 382 370 l 382 293 l 762 293 q 822 252 814 289 l 822 41 q 762 0 814 4 l 127 0 q 41 209 41 28 l 41 293 z "},"3":{"ha":863,"x_min":41,"x_max":822,"o":"m 100 0 q 41 41 49 4 l 41 255 q 100 296 49 292 l 483 296 l 483 361 q 453 393 479 391 l 157 393 q 98 434 106 397 l 98 608 q 157 648 106 644 l 453 648 q 483 681 479 651 l 483 746 l 100 746 q 41 787 49 750 l 41 1001 q 100 1042 49 1038 l 735 1042 q 822 833 822 1013 l 822 665 q 667 521 810 557 q 822 377 810 484 l 822 209 q 735 0 822 28 l 100 0 z "},"4":{"ha":903,"x_min":41,"x_max":863,"o":"m 488 0 q 448 60 452 8 l 448 271 l 111 271 q 41 336 47 271 l 41 526 l 157 993 q 205 1040 174 1032 l 749 1040 q 789 979 785 1031 l 789 526 l 803 526 q 863 486 854 522 l 863 312 q 803 271 854 275 l 789 271 l 789 60 q 749 0 785 8 l 488 0 m 448 526 l 448 746 l 420 746 l 372 526 l 448 526 z "},"5":{"ha":863,"x_min":41,"x_max":822,"o":"m 41 749 l 41 833 q 127 1042 41 1013 l 762 1042 q 822 1001 814 1038 l 822 789 q 762 749 814 753 l 382 749 l 382 705 q 399 661 382 671 l 772 498 q 822 293 815 453 l 822 209 q 735 0 822 28 l 127 0 q 41 209 41 28 l 41 336 q 81 396 45 388 l 342 396 q 382 336 378 388 l 382 293 l 480 293 l 480 336 q 464 381 480 370 l 91 544 q 41 749 47 589 z "},"6":{"ha":863,"x_min":41,"x_max":822,"o":"m 127 0 q 41 209 41 28 l 41 833 q 127 1042 41 1013 l 762 1042 q 822 1001 814 1038 l 822 787 q 762 746 814 750 l 380 746 l 380 648 l 735 648 q 822 439 822 620 l 822 209 q 735 0 822 28 l 127 0 m 380 296 l 480 296 l 480 396 l 380 396 l 380 296 z "},"7":{"ha":863,"x_min":41,"x_max":822,"o":"m 496 746 l 100 746 q 41 787 49 750 l 41 1001 q 100 1042 49 1038 l 735 1042 q 822 833 822 1013 l 822 746 l 643 60 q 594 0 629 4 l 342 0 q 301 60 294 9 l 496 746 z "},"8":{"ha":863,"x_min":41,"x_max":822,"o":"m 735 1042 q 822 833 822 1013 l 822 665 q 667 521 810 557 q 822 377 810 484 l 822 209 q 735 0 822 28 l 127 0 q 41 209 41 28 l 41 377 q 195 521 53 484 q 41 665 53 557 l 41 833 q 127 1042 41 1013 l 735 1042 m 483 749 l 380 749 l 380 681 q 410 648 384 651 l 453 648 q 483 681 479 651 l 483 749 m 483 293 l 483 361 q 453 393 479 391 l 410 393 q 380 361 384 391 l 380 293 l 483 293 z "},"9":{"ha":863,"x_min":41,"x_max":822,"o":"m 735 1042 q 822 833 822 1013 l 822 209 q 735 0 822 28 l 100 0 q 41 41 49 4 l 41 255 q 100 296 49 292 l 483 296 l 483 393 l 127 393 q 41 602 41 422 l 41 833 q 127 1042 41 1013 l 735 1042 m 483 746 l 382 746 l 382 646 l 483 646 l 483 746 z "}," ":{"ha":283,"x_min":0,"x_max":0,"o":""},"!":{"ha":461,"x_min":49,"x_max":412,"o":"m 133 0 q 92 60 96 8 l 92 236 q 133 296 96 288 l 355 296 q 396 236 392 288 l 396 60 q 355 0 392 8 l 133 0 m 109 385 q 68 445 72 393 l 49 982 q 90 1042 53 1034 l 372 1042 q 412 982 408 1034 l 393 445 q 353 385 389 393 l 109 385 z "},"\"":{"ha":469,"x_min":41,"x_max":429,"o":"m 81 746 q 41 806 45 754 l 41 1061 q 81 1120 45 1112 l 165 1120 q 206 1061 202 1112 l 206 806 q 165 746 202 754 l 81 746 m 304 746 q 263 806 267 754 l 263 1061 q 304 1120 267 1112 l 388 1120 q 429 1061 425 1112 l 429 806 q 388 746 425 754 l 304 746 z "},"#":{"ha":1137,"x_min":27,"x_max":1109,"o":"m 100 0 q 60 60 64 8 l 94 206 l 87 206 q 27 247 35 210 l 27 418 q 87 458 35 454 l 153 458 l 184 591 l 144 591 q 84 632 92 595 l 84 803 q 144 844 92 840 l 244 844 l 277 982 q 317 1042 281 1034 l 578 1042 q 618 982 614 1034 l 586 844 l 697 844 l 730 982 q 770 1042 734 1034 l 1031 1042 q 1072 982 1067 1034 l 1039 844 l 1050 844 q 1109 803 1101 840 l 1109 632 q 1050 591 1101 595 l 979 591 l 948 458 l 993 458 q 1053 418 1044 454 l 1053 247 q 993 206 1044 210 l 888 206 l 854 60 q 814 0 850 8 l 553 0 q 513 60 517 8 l 547 206 l 435 206 l 401 60 q 361 0 397 8 l 100 0 m 495 458 l 606 458 l 637 591 l 526 591 l 495 458 z "},"$":{"ha":890,"x_min":54,"x_max":836,"o":"m 54 749 l 54 833 q 141 1042 54 1013 l 277 1042 l 277 1104 q 317 1164 281 1156 l 578 1164 q 618 1104 614 1156 l 618 1042 l 749 1042 q 836 833 836 1013 l 836 705 q 795 646 831 654 l 534 646 q 494 705 498 654 l 494 749 l 396 749 l 396 705 q 412 661 396 671 l 785 498 q 836 293 829 453 l 836 209 q 749 0 836 28 l 616 0 l 616 -62 q 575 -122 612 -114 l 315 -122 q 274 -62 278 -114 l 274 0 l 141 0 q 54 209 54 28 l 54 336 q 95 396 58 388 l 355 396 q 396 336 392 388 l 396 293 l 494 293 l 494 336 q 477 381 494 370 l 104 544 q 54 749 61 589 z "},"%":{"ha":932,"x_min":41,"x_max":891,"o":"m 84 0 q 43 60 41 3 l 567 979 q 631 1042 590 1035 l 842 1042 q 890 982 887 1038 l 366 60 q 297 0 343 -4 l 84 0 m 90 690 q 45 757 49 700 l 45 978 q 90 1043 49 1034 l 334 1043 q 378 978 374 1034 l 378 757 q 334 690 374 700 l 90 690 m 184 818 l 239 818 q 250 831 248 818 l 250 902 q 239 916 248 916 l 184 916 q 175 902 175 916 l 175 831 q 184 818 175 818 m 602 -1 q 557 65 562 8 l 557 286 q 602 351 562 342 l 846 351 q 891 286 887 342 l 891 65 q 846 -1 887 8 l 602 -1 m 697 126 l 751 126 q 762 140 761 126 l 762 210 q 751 224 761 224 l 697 224 q 688 210 688 224 l 688 140 q 697 126 688 126 z "},"&":{"ha":694,"x_min":0,"x_max":0,"o":""},"'":{"ha":385,"x_min":41,"x_max":345,"o":"m 81 746 q 41 806 45 754 l 41 1061 q 81 1120 45 1112 l 304 1120 q 345 1061 340 1112 l 345 806 q 304 746 340 754 l 81 746 z "},"(":{"ha":532,"x_min":60,"x_max":507,"o":"m 401 773 l 401 255 q 431 182 403 184 l 448 182 q 507 141 499 178 l 507 -73 q 448 -114 499 -110 l 190 -114 q 91 34 121 -113 q 60 286 61 180 l 60 742 q 91 994 61 848 q 190 1142 121 1141 l 448 1142 q 507 1101 499 1138 l 507 887 q 448 846 499 850 l 431 846 q 401 773 403 844 z "},")":{"ha":532,"x_min":24,"x_max":472,"o":"m 130 773 q 100 846 129 844 l 84 846 q 24 887 33 850 l 24 1101 q 84 1142 33 1138 l 342 1142 q 441 994 411 1141 q 472 742 471 848 l 472 286 q 441 34 471 180 q 342 -114 411 -113 l 84 -114 q 24 -73 33 -110 l 24 141 q 84 182 33 178 l 100 182 q 130 255 129 184 l 130 773 z "},"*":{"ha":629,"x_min":60,"x_max":570,"o":"m 536 479 q 549 408 570 441 l 429 288 q 358 301 397 267 l 315 343 l 271 301 q 201 288 233 267 l 80 408 q 94 479 60 439 l 136 522 l 94 566 q 80 636 60 604 l 201 757 q 271 743 232 777 l 315 701 l 358 743 q 429 757 396 777 l 549 636 q 536 566 570 605 l 494 522 l 536 479 z "},"+":{"ha":613,"x_min":60,"x_max":553,"o":"m 494 648 q 553 608 545 644 l 553 437 q 494 396 545 400 l 433 396 l 433 335 q 392 275 429 283 l 221 275 q 180 335 184 283 l 180 396 l 119 396 q 60 437 68 400 l 60 608 q 119 648 68 644 l 180 648 l 180 709 q 221 769 184 761 l 392 769 q 433 709 429 761 l 433 648 l 494 648 z "},",":{"ha":412,"x_min":54,"x_max":358,"o":"m 95 -79 q 54 -19 58 -71 l 54 236 q 95 296 58 288 l 317 296 q 358 236 354 288 l 358 60 q 317 0 354 8 l 144 -79 l 95 -79 z "},"-":{"ha":613,"x_min":60,"x_max":553,"o":"m 494 648 q 553 608 545 644 l 553 437 q 494 396 545 400 l 119 396 q 60 437 68 400 l 60 608 q 119 648 68 644 l 494 648 z "},".":{"ha":412,"x_min":54,"x_max":358,"o":"m 95 0 q 54 60 58 8 l 54 236 q 95 296 58 288 l 317 296 q 358 236 354 288 l 358 60 q 317 0 354 8 l 95 0 z "},"/":{"ha":562,"x_min":1,"x_max":560,"o":"m 42 0 q 1 60 5 8 l 218 982 q 259 1042 222 1034 l 519 1042 q 560 982 556 1034 l 343 60 q 302 0 339 8 l 42 0 z "},":":{"ha":461,"x_min":79,"x_max":382,"o":"m 119 144 q 79 203 83 152 l 79 380 q 119 439 83 431 l 342 439 q 382 380 378 431 l 382 203 q 342 144 378 152 l 119 144 m 119 605 q 79 665 83 613 l 79 841 q 119 901 83 892 l 342 901 q 382 841 378 892 l 382 665 q 342 605 378 613 l 119 605 z "},";":{"ha":461,"x_min":79,"x_max":382,"o":"m 119 605 q 79 665 83 613 l 79 841 q 119 901 83 892 l 342 901 q 382 841 378 892 l 382 665 q 342 605 378 613 l 119 605 m 119 65 q 79 125 83 73 l 79 380 q 119 439 83 431 l 342 439 q 382 380 378 431 l 382 203 q 342 144 378 152 l 168 65 l 119 65 z "},"<":{"ha":629,"x_min":54,"x_max":575,"o":"m 370 892 q 442 902 411 924 l 556 774 q 538 704 575 742 l 332 521 l 538 338 q 556 267 575 300 l 442 140 q 370 149 411 118 l 91 397 q 62 471 54 435 l 62 576 q 91 644 54 606 l 370 892 z "},"=":{"ha":613,"x_min":60,"x_max":553,"o":"m 494 819 q 553 779 545 815 l 553 608 q 494 567 545 571 l 119 567 q 60 608 68 571 l 60 779 q 119 819 68 815 l 494 819 m 494 461 q 553 420 545 457 l 553 250 q 494 209 545 213 l 119 209 q 60 250 68 213 l 60 420 q 119 461 68 457 l 494 461 z "},">":{"ha":629,"x_min":54,"x_max":575,"o":"m 259 892 l 538 644 q 567 576 575 606 l 567 471 q 538 397 575 435 l 259 149 q 187 140 218 118 l 73 267 q 91 338 54 300 l 297 521 l 91 704 q 73 774 54 742 l 187 902 q 259 892 218 924 z "},"?":{"ha":873,"x_min":46,"x_max":827,"o":"m 827 749 q 777 544 821 589 l 605 467 l 605 445 q 564 385 601 393 l 304 385 q 263 445 267 393 l 263 496 q 289 579 260 549 l 469 661 q 486 705 486 671 l 486 749 l 388 749 l 388 705 q 347 646 384 654 l 87 646 q 46 705 50 654 l 46 833 q 133 1042 46 1013 l 741 1042 q 827 833 827 1013 l 827 749 m 323 0 q 282 60 286 8 l 282 236 q 323 296 286 288 l 545 296 q 586 236 582 288 l 586 60 q 545 0 582 8 l 323 0 z "},"@":{"ha":694,"x_min":0,"x_max":0,"o":""},"A":{"ha":852,"x_min":35,"x_max":817,"o":"m 684 1042 q 760 977 742 1029 l 817 60 q 776 0 812 8 l 515 0 q 475 60 479 8 l 468 179 l 385 179 l 377 60 q 336 0 373 8 l 76 0 q 35 60 39 8 l 92 977 q 168 1042 110 1029 l 684 1042 m 437 751 l 420 751 l 400 396 l 454 396 l 437 751 z "},"B":{"ha":863,"x_min":41,"x_max":822,"o":"m 483 749 l 382 749 l 382 648 l 453 648 q 483 681 479 651 l 483 749 m 483 293 l 483 361 q 453 393 479 391 l 382 393 l 382 293 l 483 293 m 41 982 q 81 1042 45 1034 l 735 1042 q 822 833 822 1013 l 822 665 q 667 521 810 557 q 822 377 810 484 l 822 209 q 735 0 822 28 l 81 0 q 41 60 45 8 l 41 982 z "},"C":{"ha":863,"x_min":41,"x_max":822,"o":"m 41 833 q 127 1042 41 1013 l 735 1042 q 822 833 822 1013 l 822 667 q 781 608 818 616 l 521 608 q 480 667 484 616 l 480 746 l 380 746 l 380 296 l 480 296 l 480 374 q 521 434 484 426 l 781 434 q 822 374 818 426 l 822 209 q 735 0 822 28 l 127 0 q 41 209 41 28 l 41 833 z "},"D":{"ha":863,"x_min":41,"x_max":822,"o":"m 41 982 q 81 1042 45 1034 l 692 1042 q 791 894 761 1040 q 822 642 821 747 l 822 401 q 791 148 821 294 q 692 0 761 1 l 81 0 q 41 60 45 8 l 41 982 m 480 673 q 450 746 479 743 l 347 746 l 347 296 l 450 296 q 480 369 479 298 l 480 673 z "},"E":{"ha":863,"x_min":41,"x_max":822,"o":"m 41 982 q 81 1042 45 1034 l 762 1042 q 822 1001 814 1038 l 822 787 q 762 746 814 750 l 381 746 l 381 648 l 705 648 q 765 608 757 644 l 765 434 q 705 393 757 397 l 381 393 l 381 296 l 762 296 q 822 255 814 292 l 822 41 q 762 0 814 4 l 81 0 q 41 60 45 8 l 41 982 z "},"F":{"ha":863,"x_min":41,"x_max":822,"o":"m 41 982 q 81 1042 45 1034 l 762 1042 q 822 1001 814 1038 l 822 787 q 762 746 814 750 l 381 746 l 381 648 l 705 648 q 765 608 757 644 l 765 437 q 705 396 757 400 l 380 396 l 380 60 q 339 0 376 8 l 81 0 q 41 60 45 8 l 41 982 z "},"G":{"ha":863,"x_min":41,"x_max":822,"o":"m 127 0 q 41 209 41 28 l 41 833 q 127 1042 41 1013 l 762 1042 q 822 1001 814 1038 l 822 787 q 762 746 814 750 l 380 746 l 380 296 l 480 296 l 480 399 q 420 434 429 403 l 420 608 q 480 648 429 644 l 735 648 q 822 439 822 620 l 822 209 q 735 0 822 28 l 127 0 z "},"H":{"ha":863,"x_min":41,"x_max":822,"o":"m 81 0 q 41 60 45 8 l 41 982 q 81 1042 45 1034 l 342 1042 q 382 982 378 1034 l 382 651 l 480 651 l 480 982 q 521 1042 484 1034 l 781 1042 q 822 982 818 1034 l 822 60 q 781 0 818 8 l 521 0 q 480 60 484 8 l 480 396 l 382 396 l 382 60 q 342 0 378 8 l 81 0 z "},"I":{"ha":423,"x_min":41,"x_max":382,"o":"m 81 0 q 41 60 45 8 l 41 982 q 81 1042 45 1034 l 342 1042 q 382 982 378 1034 l 382 60 q 342 0 378 8 l 81 0 z "},"J":{"ha":863,"x_min":41,"x_max":822,"o":"m 127 0 q 41 209 41 28 l 41 374 q 81 434 45 426 l 339 434 q 380 374 376 426 l 380 296 l 480 296 l 480 982 q 521 1042 484 1034 l 781 1042 q 822 982 818 1034 l 822 209 q 735 0 822 28 l 127 0 z "},"K":{"ha":865,"x_min":41,"x_max":827,"o":"m 41 982 q 81 1042 45 1034 l 342 1042 q 382 982 378 1034 l 382 648 l 410 648 q 439 678 435 652 l 486 982 q 526 1042 490 1034 l 787 1042 q 827 982 823 1034 l 773 624 q 667 521 753 547 q 773 418 753 495 l 827 60 q 787 0 823 8 l 526 0 q 486 60 490 8 l 439 363 q 410 393 435 389 l 382 393 l 382 60 q 342 0 378 8 l 81 0 q 41 60 45 8 l 41 982 z "},"L":{"ha":768,"x_min":41,"x_max":727,"o":"m 41 60 l 41 982 q 81 1042 45 1034 l 339 1042 q 380 982 376 1034 l 380 296 l 667 296 q 727 255 719 292 l 727 41 q 667 0 719 4 l 81 0 q 41 60 45 8 z "},"M":{"ha":1294,"x_min":35,"x_max":1259,"o":"m 165 1042 l 537 1042 q 589 996 582 1040 l 643 654 l 648 654 l 703 996 q 760 1042 712 1040 l 1128 1042 q 1204 977 1187 1029 l 1259 60 q 1218 0 1255 8 l 958 0 q 917 60 921 8 l 884 618 l 876 618 l 795 60 q 754 0 791 8 l 540 0 q 499 60 503 8 l 418 618 l 410 618 l 377 60 q 336 0 373 8 l 76 0 q 35 60 39 8 l 90 977 q 165 1042 107 1029 z "},"N":{"ha":863,"x_min":41,"x_max":822,"o":"m 81 0 q 41 60 45 8 l 41 982 q 81 1042 45 1034 l 331 1042 q 380 996 368 1035 l 480 735 l 480 982 q 521 1042 484 1034 l 781 1042 q 822 982 818 1034 l 822 60 q 781 0 818 8 l 532 0 q 483 46 495 7 l 382 307 l 382 60 q 342 0 378 8 l 81 0 z "},"O":{"ha":863,"x_min":41,"x_max":822,"o":"m 127 0 q 41 209 41 28 l 41 833 q 127 1042 41 1013 l 735 1042 q 822 833 822 1013 l 822 209 q 735 0 822 28 l 127 0 m 480 296 l 480 746 l 380 746 l 380 296 l 480 296 z "},"P":{"ha":863,"x_min":41,"x_max":822,"o":"m 127 1042 l 735 1042 q 822 833 822 1013 l 822 529 q 735 320 822 349 l 382 320 l 382 60 q 342 0 378 8 l 81 0 q 41 60 45 8 l 41 833 q 127 1042 41 1013 m 382 746 l 382 572 l 453 572 q 483 616 483 575 l 483 746 l 382 746 z "},"Q":{"ha":863,"x_min":41,"x_max":822,"o":"m 127 0 q 41 209 41 28 l 41 833 q 127 1042 41 1013 l 735 1042 q 822 833 822 1013 l 822 209 q 735 0 822 28 l 605 0 l 605 -90 q 564 -149 601 -141 l 304 -149 q 263 -90 267 -141 l 263 0 l 127 0 m 480 296 l 480 746 l 380 746 l 380 296 l 480 296 z "},"R":{"ha":868,"x_min":41,"x_max":827,"o":"m 81 0 q 41 60 45 8 l 41 982 q 81 1042 45 1034 l 735 1042 q 822 833 822 1013 l 822 665 q 667 521 810 557 q 773 418 753 495 l 827 60 q 787 0 823 8 l 526 0 q 486 60 490 8 l 439 363 q 410 393 435 389 l 382 393 l 382 60 q 342 0 378 8 l 81 0 m 483 749 l 382 749 l 382 648 l 453 648 q 483 681 479 651 l 483 749 z "},"S":{"ha":863,"x_min":41,"x_max":822,"o":"m 41 749 l 41 833 q 127 1042 41 1013 l 735 1042 q 822 833 822 1013 l 822 705 q 781 646 818 654 l 521 646 q 480 705 484 654 l 480 749 l 382 749 l 382 705 q 399 661 382 671 l 772 498 q 822 293 815 453 l 822 209 q 735 0 822 28 l 127 0 q 41 209 41 28 l 41 336 q 81 396 45 388 l 342 396 q 382 336 378 388 l 382 293 l 480 293 l 480 336 q 464 381 480 370 l 91 544 q 41 749 47 589 z "},"T":{"ha":863,"x_min":41,"x_max":822,"o":"m 762 1042 q 822 1001 814 1038 l 822 787 q 762 746 814 750 l 605 746 l 605 60 q 564 0 601 8 l 304 0 q 263 60 267 8 l 263 746 l 100 746 q 41 787 49 750 l 41 1001 q 100 1042 49 1038 l 762 1042 z "},"U":{"ha":863,"x_min":41,"x_max":822,"o":"m 127 0 q 41 209 41 28 l 41 982 q 81 1042 45 1034 l 339 1042 q 380 982 376 1034 l 380 296 l 480 296 l 480 982 q 521 1042 484 1034 l 781 1042 q 822 982 818 1034 l 822 209 q 735 0 822 28 l 127 0 z "},"V":{"ha":857,"x_min":38,"x_max":819,"o":"m 686 0 l 171 0 q 95 65 113 12 l 38 982 q 79 1042 42 1034 l 339 1042 q 380 982 376 1034 l 423 290 l 439 290 l 477 982 q 518 1042 481 1034 l 779 1042 q 819 982 815 1034 l 762 65 q 686 0 745 12 z "},"W":{"ha":1294,"x_min":35,"x_max":1259,"o":"m 165 0 q 90 65 107 12 l 35 982 q 76 1042 39 1034 l 336 1042 q 377 982 373 1034 l 410 423 l 418 423 l 499 982 q 540 1042 503 1034 l 754 1042 q 795 982 791 1034 l 876 423 l 884 423 l 917 982 q 958 1042 921 1034 l 1218 1042 q 1259 982 1255 1034 l 1204 65 q 1128 0 1187 12 l 760 0 q 703 46 712 1 l 648 388 l 643 388 l 589 46 q 537 0 582 1 l 165 0 z "},"X":{"ha":860,"x_min":38,"x_max":822,"o":"m 480 982 q 521 1042 484 1034 l 781 1042 q 822 982 818 1034 l 768 624 q 662 521 747 547 q 768 418 747 495 l 822 60 q 781 0 818 8 l 521 0 q 480 60 484 8 l 431 388 l 380 60 q 339 0 376 8 l 79 0 q 38 60 42 8 l 92 418 q 198 521 113 495 q 92 624 113 547 l 38 982 q 79 1042 42 1034 l 339 1042 q 380 982 376 1034 l 431 651 l 480 982 z "},"Y":{"ha":854,"x_min":35,"x_max":819,"o":"m 477 982 q 518 1042 481 1034 l 779 1042 q 819 982 815 1034 l 765 624 q 597 439 741 506 l 597 60 q 556 0 593 8 l 296 0 q 255 60 259 8 l 255 441 q 90 624 114 507 l 35 982 q 76 1042 39 1034 l 336 1042 q 377 982 373 1034 l 429 651 l 477 982 z "},"Z":{"ha":863,"x_min":41,"x_max":822,"o":"m 496 746 l 100 746 q 41 787 49 750 l 41 1001 q 100 1042 49 1038 l 735 1042 q 822 833 822 1013 l 822 746 q 785 609 815 651 l 366 296 l 762 296 q 822 255 814 292 l 822 41 q 762 0 814 4 l 127 0 q 41 209 41 28 l 41 296 q 77 433 47 391 l 496 746 z "},"[":{"ha":694,"x_min":0,"x_max":0,"o":""},"\\":{"ha":562,"x_min":1,"x_max":560,"o":"m 519 0 l 259 0 q 218 60 222 8 l 1 982 q 42 1042 5 1034 l 302 1042 q 343 982 339 1034 l 560 60 q 519 0 556 8 z "},"]":{"ha":694,"x_min":0,"x_max":0,"o":""},"^":{"ha":694,"x_min":0,"x_max":0,"o":""},"_":{"ha":613,"x_min":60,"x_max":553,"o":"m 494 252 q 553 212 545 248 l 553 41 q 494 0 545 4 l 119 0 q 60 41 68 4 l 60 212 q 119 252 68 248 l 494 252 z "},"`":{"ha":852,"x_min":168,"x_max":684,"o":"m 635 1303 q 682 1249 684 1286 l 647 1118 q 578 1095 629 1085 l 217 1192 q 170 1246 168 1210 l 205 1378 q 274 1401 222 1411 l 635 1303 z "},"a":{"ha":852,"x_min":35,"x_max":817,"o":"m 684 1042 q 760 977 742 1029 l 817 60 q 776 0 812 8 l 515 0 q 475 60 479 8 l 468 179 l 385 179 l 377 60 q 336 0 373 8 l 76 0 q 35 60 39 8 l 92 977 q 168 1042 110 1029 l 684 1042 m 437 751 l 420 751 l 400 396 l 454 396 l 437 751 z "},"b":{"ha":863,"x_min":41,"x_max":822,"o":"m 483 749 l 382 749 l 382 648 l 453 648 q 483 681 479 651 l 483 749 m 483 293 l 483 361 q 453 393 479 391 l 382 393 l 382 293 l 483 293 m 41 982 q 81 1042 45 1034 l 735 1042 q 822 833 822 1013 l 822 665 q 667 521 810 557 q 822 377 810 484 l 822 209 q 735 0 822 28 l 81 0 q 41 60 45 8 l 41 982 z "},"c":{"ha":863,"x_min":41,"x_max":822,"o":"m 41 833 q 127 1042 41 1013 l 735 1042 q 822 833 822 1013 l 822 667 q 781 608 818 616 l 521 608 q 480 667 484 616 l 480 746 l 380 746 l 380 296 l 480 296 l 480 374 q 521 434 484 426 l 781 434 q 822 374 818 426 l 822 209 q 735 0 822 28 l 127 0 q 41 209 41 28 l 41 833 z "},"d":{"ha":863,"x_min":41,"x_max":822,"o":"m 41 982 q 81 1042 45 1034 l 692 1042 q 791 894 761 1040 q 822 642 821 747 l 822 401 q 791 148 821 294 q 692 0 761 1 l 81 0 q 41 60 45 8 l 41 982 m 480 673 q 450 746 479 743 l 347 746 l 347 296 l 450 296 q 480 369 479 298 l 480 673 z "},"e":{"ha":863,"x_min":41,"x_max":822,"o":"m 41 982 q 81 1042 45 1034 l 762 1042 q 822 1001 814 1038 l 822 787 q 762 746 814 750 l 381 746 l 381 648 l 705 648 q 765 608 757 644 l 765 434 q 705 393 757 397 l 381 393 l 381 296 l 762 296 q 822 255 814 292 l 822 41 q 762 0 814 4 l 81 0 q 41 60 45 8 l 41 982 z "},"f":{"ha":863,"x_min":41,"x_max":822,"o":"m 41 982 q 81 1042 45 1034 l 762 1042 q 822 1001 814 1038 l 822 787 q 762 746 814 750 l 381 746 l 381 648 l 705 648 q 765 608 757 644 l 765 437 q 705 396 757 400 l 380 396 l 380 60 q 339 0 376 8 l 81 0 q 41 60 45 8 l 41 982 z "},"g":{"ha":863,"x_min":41,"x_max":822,"o":"m 127 0 q 41 209 41 28 l 41 833 q 127 1042 41 1013 l 762 1042 q 822 1001 814 1038 l 822 787 q 762 746 814 750 l 380 746 l 380 296 l 480 296 l 480 399 q 420 434 429 403 l 420 608 q 480 648 429 644 l 735 648 q 822 439 822 620 l 822 209 q 735 0 822 28 l 127 0 z "},"h":{"ha":863,"x_min":41,"x_max":822,"o":"m 81 0 q 41 60 45 8 l 41 982 q 81 1042 45 1034 l 342 1042 q 382 982 378 1034 l 382 651 l 480 651 l 480 982 q 521 1042 484 1034 l 781 1042 q 822 982 818 1034 l 822 60 q 781 0 818 8 l 521 0 q 480 60 484 8 l 480 396 l 382 396 l 382 60 q 342 0 378 8 l 81 0 z "},"i":{"ha":423,"x_min":41,"x_max":382,"o":"m 81 0 q 41 60 45 8 l 41 982 q 81 1042 45 1034 l 342 1042 q 382 982 378 1034 l 382 60 q 342 0 378 8 l 81 0 z "},"j":{"ha":863,"x_min":41,"x_max":822,"o":"m 127 0 q 41 209 41 28 l 41 374 q 81 434 45 426 l 339 434 q 380 374 376 426 l 380 296 l 480 296 l 480 982 q 521 1042 484 1034 l 781 1042 q 822 982 818 1034 l 822 209 q 735 0 822 28 l 127 0 z "},"k":{"ha":868,"x_min":41,"x_max":827,"o":"m 41 982 q 81 1042 45 1034 l 342 1042 q 382 982 378 1034 l 382 648 l 410 648 q 439 678 435 652 l 486 982 q 526 1042 490 1034 l 787 1042 q 827 982 823 1034 l 773 624 q 667 521 753 547 q 773 418 753 495 l 827 60 q 787 0 823 8 l 526 0 q 486 60 490 8 l 439 363 q 410 393 435 389 l 382 393 l 382 60 q 342 0 378 8 l 81 0 q 41 60 45 8 l 41 982 z "},"l":{"ha":768,"x_min":41,"x_max":727,"o":"m 41 60 l 41 982 q 81 1042 45 1034 l 339 1042 q 380 982 376 1034 l 380 296 l 667 296 q 727 255 719 292 l 727 41 q 667 0 719 4 l 81 0 q 41 60 45 8 z "},"m":{"ha":1299,"x_min":35,"x_max":1259,"o":"m 165 1042 l 537 1042 q 589 996 582 1040 l 643 654 l 648 654 l 703 996 q 760 1042 712 1040 l 1128 1042 q 1204 977 1187 1029 l 1259 60 q 1218 0 1255 8 l 958 0 q 917 60 921 8 l 884 618 l 876 618 l 795 60 q 754 0 791 8 l 540 0 q 499 60 503 8 l 418 618 l 410 618 l 377 60 q 336 0 373 8 l 76 0 q 35 60 39 8 l 90 977 q 165 1042 107 1029 z "},"n":{"ha":863,"x_min":41,"x_max":822,"o":"m 81 0 q 41 60 45 8 l 41 982 q 81 1042 45 1034 l 331 1042 q 380 996 368 1035 l 480 735 l 480 982 q 521 1042 484 1034 l 781 1042 q 822 982 818 1034 l 822 60 q 781 0 818 8 l 532 0 q 483 46 495 7 l 382 307 l 382 60 q 342 0 378 8 l 81 0 z "},"o":{"ha":863,"x_min":41,"x_max":822,"o":"m 127 0 q 41 209 41 28 l 41 833 q 127 1042 41 1013 l 735 1042 q 822 833 822 1013 l 822 209 q 735 0 822 28 l 127 0 m 480 296 l 480 746 l 380 746 l 380 296 l 480 296 z "},"p":{"ha":863,"x_min":41,"x_max":822,"o":"m 127 1042 l 735 1042 q 822 833 822 1013 l 822 529 q 735 320 822 349 l 382 320 l 382 60 q 342 0 378 8 l 81 0 q 41 60 45 8 l 41 833 q 127 1042 41 1013 m 382 746 l 382 572 l 453 572 q 483 616 483 575 l 483 746 l 382 746 z "},"q":{"ha":863,"x_min":41,"x_max":822,"o":"m 127 0 q 41 209 41 28 l 41 833 q 127 1042 41 1013 l 735 1042 q 822 833 822 1013 l 822 209 q 735 0 822 28 l 605 0 l 605 -90 q 564 -149 601 -141 l 304 -149 q 263 -90 267 -141 l 263 0 l 127 0 m 480 296 l 480 746 l 380 746 l 380 296 l 480 296 z "},"r":{"ha":868,"x_min":41,"x_max":827,"o":"m 81 0 q 41 60 45 8 l 41 982 q 81 1042 45 1034 l 735 1042 q 822 833 822 1013 l 822 665 q 667 521 810 557 q 773 418 753 495 l 827 60 q 787 0 823 8 l 526 0 q 486 60 490 8 l 439 363 q 410 393 435 389 l 382 393 l 382 60 q 342 0 378 8 l 81 0 m 483 749 l 382 749 l 382 648 l 453 648 q 483 681 479 651 l 483 749 z "},"s":{"ha":863,"x_min":41,"x_max":822,"o":"m 41 749 l 41 833 q 127 1042 41 1013 l 735 1042 q 822 833 822 1013 l 822 705 q 781 646 818 654 l 521 646 q 480 705 484 654 l 480 749 l 382 749 l 382 705 q 399 661 382 671 l 772 498 q 822 293 815 453 l 822 209 q 735 0 822 28 l 127 0 q 41 209 41 28 l 41 336 q 81 396 45 388 l 342 396 q 382 336 378 388 l 382 293 l 480 293 l 480 336 q 464 381 480 370 l 91 544 q 41 749 47 589 z "},"t":{"ha":863,"x_min":41,"x_max":822,"o":"m 762 1042 q 822 1001 814 1038 l 822 787 q 762 746 814 750 l 605 746 l 605 60 q 564 0 601 8 l 304 0 q 263 60 267 8 l 263 746 l 100 746 q 41 787 49 750 l 41 1001 q 100 1042 49 1038 l 762 1042 z "},"u":{"ha":863,"x_min":41,"x_max":822,"o":"m 127 0 q 41 209 41 28 l 41 982 q 81 1042 45 1034 l 339 1042 q 380 982 376 1034 l 380 296 l 480 296 l 480 982 q 521 1042 484 1034 l 781 1042 q 822 982 818 1034 l 822 209 q 735 0 822 28 l 127 0 z "},"v":{"ha":857,"x_min":38,"x_max":819,"o":"m 686 0 l 171 0 q 95 65 113 12 l 38 982 q 79 1042 42 1034 l 339 1042 q 380 982 376 1034 l 423 290 l 439 290 l 477 982 q 518 1042 481 1034 l 779 1042 q 819 982 815 1034 l 762 65 q 686 0 745 12 z "},"w":{"ha":1294,"x_min":35,"x_max":1259,"o":"m 165 0 q 90 65 107 12 l 35 982 q 76 1042 39 1034 l 336 1042 q 377 982 373 1034 l 410 423 l 418 423 l 499 982 q 540 1042 503 1034 l 754 1042 q 795 982 791 1034 l 876 423 l 884 423 l 917 982 q 958 1042 921 1034 l 1218 1042 q 1259 982 1255 1034 l 1204 65 q 1128 0 1187 12 l 760 0 q 703 46 712 1 l 648 388 l 643 388 l 589 46 q 537 0 582 1 l 165 0 z "},"x":{"ha":860,"x_min":38,"x_max":822,"o":"m 480 982 q 521 1042 484 1034 l 781 1042 q 822 982 818 1034 l 768 624 q 662 521 747 547 q 768 418 747 495 l 822 60 q 781 0 818 8 l 521 0 q 480 60 484 8 l 431 388 l 380 60 q 339 0 376 8 l 79 0 q 38 60 42 8 l 92 418 q 198 521 113 495 q 92 624 113 547 l 38 982 q 79 1042 42 1034 l 339 1042 q 380 982 376 1034 l 431 651 l 480 982 z "},"y":{"ha":854,"x_min":35,"x_max":819,"o":"m 477 982 q 518 1042 481 1034 l 779 1042 q 819 982 815 1034 l 765 624 q 597 439 741 506 l 597 60 q 556 0 593 8 l 296 0 q 255 60 259 8 l 255 441 q 90 624 114 507 l 35 982 q 76 1042 39 1034 l 336 1042 q 377 982 373 1034 l 429 651 l 477 982 z "},"z":{"ha":863,"x_min":41,"x_max":822,"o":"m 496 746 l 100 746 q 41 787 49 750 l 41 1001 q 100 1042 49 1038 l 735 1042 q 822 833 822 1013 l 822 746 q 785 609 815 651 l 366 296 l 762 296 q 822 255 814 292 l 822 41 q 762 0 814 4 l 127 0 q 41 209 41 28 l 41 296 q 77 433 47 391 l 496 746 z "},"{":{"ha":694,"x_min":0,"x_max":0,"o":""},"|":{"ha":461,"x_min":60,"x_max":401,"o":"m 100 -117 q 60 -57 64 -109 l 60 1082 q 100 1142 64 1134 l 361 1142 q 401 1082 397 1134 l 401 -57 q 361 -117 397 -109 l 100 -117 z "},"}":{"ha":694,"x_min":0,"x_max":0,"o":""},"~":{"ha":694,"x_min":0,"x_max":0,"o":""}," ":{"ha":694,"x_min":0,"x_max":0,"o":""},"¡":{"ha":461,"x_min":49,"x_max":412,"o":"m 133 1042 l 355 1042 q 396 982 392 1034 l 396 806 q 355 746 392 754 l 133 746 q 92 806 96 754 l 92 982 q 133 1042 96 1034 m 109 656 l 353 656 q 393 597 389 648 l 412 60 q 372 0 408 8 l 90 0 q 49 60 53 8 l 68 597 q 109 656 72 648 z "},"¢":{"ha":694,"x_min":0,"x_max":0,"o":""},"£":{"ha":890,"x_min":14,"x_max":844,"o":"m 62 833 q 149 1042 62 1013 l 757 1042 q 844 833 844 1013 l 844 667 q 803 608 840 616 l 543 608 q 502 667 506 616 l 502 746 l 401 746 l 420 665 q 477 624 469 659 l 477 453 q 429 414 471 420 l 388 296 l 784 296 q 844 255 836 292 l 844 41 q 784 0 836 4 l 149 0 q 62 209 62 28 l 62 296 l 100 412 l 73 412 q 14 453 22 416 l 14 624 q 73 665 22 661 l 100 665 l 62 833 z "},"¤":{"ha":694,"x_min":0,"x_max":0,"o":""},"¥":{"ha":865,"x_min":41,"x_max":825,"o":"m 483 982 q 524 1042 487 1034 l 784 1042 q 825 982 821 1034 l 770 716 q 602 532 741 600 l 602 499 l 694 499 q 754 458 746 495 l 754 369 q 694 328 746 332 l 602 328 l 602 263 l 694 263 q 754 222 746 259 l 754 133 q 694 92 746 96 l 602 92 l 602 60 q 562 0 598 8 l 301 0 q 260 60 264 8 l 260 92 l 179 92 q 119 133 127 96 l 119 222 q 179 263 127 259 l 260 263 l 260 328 l 179 328 q 119 369 127 332 l 119 458 q 179 499 127 495 l 260 499 l 260 533 q 95 716 127 597 l 41 982 q 81 1042 45 1034 l 342 1042 q 382 982 378 1034 l 434 743 l 483 982 z "},"¦":{"ha":694,"x_min":0,"x_max":0,"o":""},"§":{"ha":694,"x_min":0,"x_max":0,"o":""},"¨":{"ha":852,"x_min":95,"x_max":757,"o":"m 133 1097 q 95 1153 99 1104 l 95 1318 q 133 1374 99 1367 l 342 1374 q 380 1318 376 1367 l 380 1153 q 342 1097 376 1104 l 133 1097 m 510 1097 q 472 1153 476 1104 l 472 1318 q 510 1374 476 1367 l 719 1374 q 757 1318 753 1367 l 757 1153 q 719 1097 753 1104 l 510 1097 z "},"©":{"ha":694,"x_min":0,"x_max":0,"o":""},"ª":{"ha":694,"x_min":0,"x_max":0,"o":""},"«":{"ha":694,"x_min":0,"x_max":0,"o":""},"¬":{"ha":694,"x_min":0,"x_max":0,"o":""},"­":{"ha":694,"x_min":0,"x_max":0,"o":""},"®":{"ha":694,"x_min":0,"x_max":0,"o":""},"¯":{"ha":694,"x_min":0,"x_max":0,"o":""},"°":{"ha":854,"x_min":260,"x_max":594,"o":"m 305 1095 q 260 1161 264 1104 l 260 1355 q 305 1420 264 1411 l 549 1420 q 594 1355 590 1411 l 594 1161 q 549 1095 590 1104 l 305 1095 m 396 1215 l 458 1215 q 471 1232 469 1215 l 471 1283 q 458 1299 469 1299 l 396 1299 q 385 1283 385 1299 l 385 1232 q 396 1215 385 1215 z "},"±":{"ha":694,"x_min":0,"x_max":0,"o":""},"²":{"ha":694,"x_min":0,"x_max":0,"o":""},"³":{"ha":694,"x_min":0,"x_max":0,"o":""},"´":{"ha":852,"x_min":168,"x_max":684,"o":"m 217 1303 l 578 1401 q 647 1378 629 1411 l 682 1246 q 635 1192 684 1210 l 274 1095 q 205 1118 222 1085 l 170 1249 q 217 1303 168 1286 z "},"µ":{"ha":694,"x_min":0,"x_max":0,"o":""},"¶":{"ha":694,"x_min":0,"x_max":0,"o":""},"·":{"ha":694,"x_min":0,"x_max":0,"o":""},"¸":{"ha":692,"x_min":60,"x_max":632,"o":"m 623 0 q 632 -68 629 -30 l 632 -119 q 545 -328 632 -300 l 119 -328 q 60 -288 68 -324 l 60 -109 q 119 -68 68 -72 l 307 -68 l 307 -49 q 289 0 304 -22 l 623 0 z "},"¹":{"ha":694,"x_min":0,"x_max":0,"o":""},"º":{"ha":694,"x_min":0,"x_max":0,"o":""},"»":{"ha":694,"x_min":0,"x_max":0,"o":""},"¼":{"ha":694,"x_min":0,"x_max":0,"o":""},"½":{"ha":694,"x_min":0,"x_max":0,"o":""},"¾":{"ha":694,"x_min":0,"x_max":0,"o":""},"¿":{"ha":873,"x_min":46,"x_max":827,"o":"m 46 293 q 96 498 53 453 l 269 575 l 269 597 q 309 656 273 648 l 570 656 q 610 597 606 648 l 610 545 q 585 463 613 492 l 404 381 q 388 336 388 370 l 388 293 l 486 293 l 486 336 q 526 396 490 388 l 787 396 q 827 336 823 388 l 827 209 q 741 0 827 28 l 133 0 q 46 209 46 28 l 46 293 m 551 1042 q 591 982 587 1034 l 591 806 q 551 746 587 754 l 328 746 q 288 806 292 754 l 288 982 q 328 1042 292 1034 l 551 1042 z "},"À":{"ha":852,"x_min":35,"x_max":817,"o":"m 684 1042 q 760 977 742 1029 l 817 60 q 776 0 812 8 l 515 0 q 475 60 479 8 l 468 179 l 385 179 l 377 60 q 336 0 373 8 l 76 0 q 35 60 39 8 l 92 977 q 168 1042 110 1029 l 684 1042 m 437 751 l 420 751 l 400 396 l 454 396 l 437 751 m 635 1303 q 682 1249 684 1286 l 647 1118 q 578 1095 629 1085 l 217 1192 q 170 1246 168 1210 l 205 1378 q 274 1401 222 1411 l 635 1303 z "},"Á":{"ha":852,"x_min":35,"x_max":817,"o":"m 684 1042 q 760 977 742 1029 l 817 60 q 776 0 812 8 l 515 0 q 475 60 479 8 l 468 179 l 385 179 l 377 60 q 336 0 373 8 l 76 0 q 35 60 39 8 l 92 977 q 168 1042 110 1029 l 684 1042 m 437 751 l 420 751 l 400 396 l 454 396 l 437 751 m 217 1303 l 578 1401 q 647 1378 629 1411 l 682 1246 q 635 1192 684 1210 l 274 1095 q 205 1118 222 1085 l 170 1249 q 217 1303 168 1286 z "},"Â":{"ha":852,"x_min":35,"x_max":817,"o":"m 684 1042 q 760 977 742 1029 l 817 60 q 776 0 812 8 l 515 0 q 475 60 479 8 l 468 179 l 385 179 l 377 60 q 336 0 373 8 l 76 0 q 35 60 39 8 l 92 977 q 168 1042 110 1029 l 684 1042 m 437 751 l 420 751 l 400 396 l 454 396 l 437 751 m 228 1303 l 385 1401 q 425 1405 408 1405 q 464 1401 441 1405 l 621 1303 q 665 1240 667 1282 l 633 1118 q 564 1095 610 1081 l 425 1181 l 285 1095 q 216 1118 239 1081 l 184 1240 q 228 1303 182 1282 z "},"Ã":{"ha":852,"x_min":35,"x_max":817,"o":"m 684 1042 q 760 977 742 1029 l 817 60 q 776 0 812 8 l 515 0 q 475 60 479 8 l 468 179 l 385 179 l 377 60 q 336 0 373 8 l 76 0 q 35 60 39 8 l 92 977 q 168 1042 110 1029 l 684 1042 m 437 751 l 420 751 l 400 396 l 454 396 l 437 751 m 228 1297 l 326 1389 q 412 1392 369 1409 l 492 1313 l 562 1396 q 631 1373 608 1409 l 662 1251 q 618 1187 661 1215 l 532 1101 q 445 1104 488 1084 l 369 1176 l 296 1097 q 227 1120 250 1084 l 195 1223 q 228 1297 195 1272 z "},"Ä":{"ha":852,"x_min":35,"x_max":817,"o":"m 684 1042 q 760 977 742 1029 l 817 60 q 776 0 812 8 l 515 0 q 475 60 479 8 l 468 179 l 385 179 l 377 60 q 336 0 373 8 l 76 0 q 35 60 39 8 l 92 977 q 168 1042 110 1029 l 684 1042 m 437 751 l 420 751 l 400 396 l 454 396 l 437 751 m 134 1097 q 96 1153 100 1104 l 96 1318 q 134 1374 100 1367 l 343 1374 q 381 1318 377 1367 l 381 1153 q 343 1097 377 1104 l 134 1097 m 511 1097 q 473 1153 477 1104 l 473 1318 q 511 1374 477 1367 l 720 1374 q 758 1318 754 1367 l 758 1153 q 720 1097 754 1104 l 511 1097 z "},"Å":{"ha":852,"x_min":35,"x_max":817,"o":"m 684 1042 q 760 977 742 1029 l 817 60 q 776 0 812 8 l 515 0 q 475 60 479 8 l 468 179 l 385 179 l 377 60 q 336 0 373 8 l 76 0 q 35 60 39 8 l 92 977 q 168 1042 110 1029 l 684 1042 m 437 751 l 420 751 l 400 396 l 454 396 l 437 751 m 307 1095 q 262 1161 266 1104 l 262 1355 q 307 1420 266 1411 l 551 1420 q 595 1355 591 1411 l 595 1161 q 551 1095 591 1104 l 307 1095 m 397 1215 l 460 1215 q 472 1232 471 1215 l 472 1283 q 460 1299 471 1299 l 397 1299 q 387 1283 387 1299 l 387 1232 q 397 1215 387 1215 z "},"Æ":{"ha":1112,"x_min":24,"x_max":1072,"o":"m 410 751 l 403 648 l 491 648 l 491 751 l 410 751 m 385 393 l 366 60 q 326 0 362 8 l 65 0 q 24 60 28 8 l 81 977 q 157 1042 99 1029 l 1012 1042 q 1072 1001 1063 1038 l 1072 787 q 1012 746 1063 750 l 831 746 l 831 648 l 955 648 q 1015 608 1006 644 l 1015 434 q 955 393 1006 397 l 831 393 l 831 296 l 1012 296 q 1072 255 1063 292 l 1072 41 q 1012 0 1063 4 l 532 0 q 491 60 495 8 l 491 393 l 385 393 z "},"Ç":{"ha":863,"x_min":41,"x_max":822,"o":"m 41 833 q 127 1042 41 1013 l 735 1042 q 822 833 822 1013 l 822 667 q 781 608 818 616 l 521 608 q 480 667 484 616 l 480 746 l 380 746 l 380 296 l 480 296 l 480 374 q 521 434 484 426 l 781 434 q 822 374 818 426 l 822 209 q 735 0 822 28 l 623 0 q 632 -68 629 -30 l 632 -119 q 545 -328 632 -300 l 119 -328 q 60 -288 68 -324 l 60 -109 q 119 -68 68 -72 l 307 -68 l 307 -49 q 289 0 304 -22 l 127 0 q 41 209 41 28 l 41 833 z "},"È":{"ha":863,"x_min":41,"x_max":822,"o":"m 41 982 q 81 1042 45 1034 l 762 1042 q 822 1001 814 1038 l 822 787 q 762 746 814 750 l 381 746 l 381 648 l 705 648 q 765 608 757 644 l 765 434 q 705 393 757 397 l 381 393 l 381 296 l 762 296 q 822 255 814 292 l 822 41 q 762 0 814 4 l 81 0 q 41 60 45 8 l 41 982 m 640 1303 q 688 1249 689 1286 l 652 1118 q 583 1095 635 1085 l 222 1192 q 175 1246 174 1210 l 210 1378 q 279 1401 228 1411 l 640 1303 z "},"É":{"ha":863,"x_min":41,"x_max":822,"o":"m 41 982 q 81 1042 45 1034 l 762 1042 q 822 1001 814 1038 l 822 787 q 762 746 814 750 l 381 746 l 381 648 l 705 648 q 765 608 757 644 l 765 434 q 705 393 757 397 l 381 393 l 381 296 l 762 296 q 822 255 814 292 l 822 41 q 762 0 814 4 l 81 0 q 41 60 45 8 l 41 982 m 222 1303 l 583 1401 q 652 1378 635 1411 l 688 1246 q 640 1192 689 1210 l 279 1095 q 210 1118 228 1085 l 175 1249 q 222 1303 174 1286 z "},"Ê":{"ha":863,"x_min":41,"x_max":822,"o":"m 41 982 q 81 1042 45 1034 l 762 1042 q 822 1001 814 1038 l 822 787 q 762 746 814 750 l 381 746 l 381 648 l 705 648 q 765 608 757 644 l 765 434 q 705 393 757 397 l 381 393 l 381 296 l 762 296 q 822 255 814 292 l 822 41 q 762 0 814 4 l 81 0 q 41 60 45 8 l 41 982 m 228 1297 l 326 1389 q 412 1392 369 1409 l 492 1313 l 562 1396 q 631 1373 608 1409 l 662 1251 q 618 1187 661 1215 l 532 1101 q 445 1104 488 1084 l 369 1176 l 296 1097 q 227 1120 250 1084 l 195 1223 q 228 1297 195 1272 z "},"Ë":{"ha":863,"x_min":41,"x_max":822,"o":"m 41 982 q 81 1042 45 1034 l 762 1042 q 822 1001 814 1038 l 822 787 q 762 746 814 750 l 381 746 l 381 648 l 705 648 q 765 608 757 644 l 765 434 q 705 393 757 397 l 381 393 l 381 296 l 762 296 q 822 255 814 292 l 822 41 q 762 0 814 4 l 81 0 q 41 60 45 8 l 41 982 m 134 1097 q 96 1153 100 1104 l 96 1318 q 134 1374 100 1367 l 343 1374 q 381 1318 377 1367 l 381 1153 q 343 1097 377 1104 l 134 1097 m 511 1097 q 473 1153 477 1104 l 473 1318 q 511 1374 477 1367 l 720 1374 q 758 1318 754 1367 l 758 1153 q 720 1097 754 1104 l 511 1097 z "},"Ì":{"ha":423,"x_min":22,"x_max":401,"o":"m 81 0 q 41 60 45 8 l 41 982 q 81 1042 45 1034 l 342 1042 q 382 982 378 1034 l 382 60 q 342 0 378 8 l 81 0 m 361 1303 q 400 1249 401 1286 l 373 1118 q 304 1095 355 1085 l 71 1192 q 23 1246 22 1210 l 58 1378 q 127 1401 76 1411 l 361 1303 z "},"Í":{"ha":423,"x_min":22,"x_max":401,"o":"m 81 0 q 41 60 45 8 l 41 982 q 81 1042 45 1034 l 342 1042 q 382 982 378 1034 l 382 60 q 342 0 378 8 l 81 0 m 62 1303 l 296 1401 q 365 1378 347 1411 l 400 1246 q 353 1192 401 1210 l 119 1095 q 50 1118 68 1085 l 23 1249 q 62 1303 22 1286 z "},"Î":{"ha":418,"x_min":-11,"x_max":429,"o":"m 81 0 q 41 60 45 8 l 41 982 q 81 1042 45 1034 l 342 1042 q 382 982 378 1034 l 382 60 q 342 0 378 8 l 81 0 m 33 1303 l 168 1400 q 209 1405 191 1405 q 250 1401 227 1405 l 385 1303 q 429 1240 429 1275 l 397 1118 q 328 1095 374 1081 l 209 1180 l 90 1095 q 20 1118 43 1081 l -11 1240 q 33 1303 -11 1275 z "},"Ï":{"ha":415,"x_min":-114,"x_max":529,"o":"m 80 0 q 39 60 43 8 l 39 982 q 80 1042 43 1034 l 340 1042 q 381 982 377 1034 l 381 60 q 340 0 377 8 l 80 0 m -76 1097 q -114 1153 -110 1104 l -114 1318 q -76 1374 -110 1367 l 133 1374 q 171 1318 167 1367 l 171 1153 q 133 1097 167 1104 l -76 1097 m 282 1097 q 244 1153 248 1104 l 244 1318 q 282 1374 248 1367 l 491 1374 q 529 1318 525 1367 l 529 1153 q 491 1097 525 1104 l 282 1097 z "},"Ð":{"ha":939,"x_min":27,"x_max":898,"o":"m 117 982 q 157 1042 121 1034 l 768 1042 q 867 894 837 1040 q 898 642 897 747 l 898 401 q 867 148 897 294 q 768 0 837 1 l 157 0 q 117 60 121 8 l 117 399 l 87 399 q 27 439 35 403 l 27 610 q 87 651 35 647 l 117 651 l 117 982 m 556 673 q 526 746 555 743 l 423 746 l 423 651 l 439 651 q 499 610 491 647 l 499 439 q 439 399 491 403 l 423 399 l 423 296 l 526 296 q 556 369 555 298 l 556 673 z "},"Ñ":{"ha":863,"x_min":41,"x_max":822,"o":"m 81 0 q 41 60 45 8 l 41 982 q 81 1042 45 1034 l 331 1042 q 380 996 368 1035 l 480 735 l 480 982 q 521 1042 484 1034 l 781 1042 q 822 982 818 1034 l 822 60 q 781 0 818 8 l 532 0 q 483 46 495 7 l 382 307 l 382 60 q 342 0 378 8 l 81 0 m 231 1299 l 328 1392 q 415 1394 372 1412 l 495 1316 l 564 1398 q 633 1375 610 1412 l 665 1253 q 621 1190 663 1218 l 534 1104 q 448 1107 491 1086 l 372 1179 l 298 1100 q 229 1123 252 1086 l 198 1226 q 231 1299 198 1275 z "},"Ò":{"ha":863,"x_min":41,"x_max":822,"o":"m 127 0 q 41 209 41 28 l 41 833 q 127 1042 41 1013 l 735 1042 q 822 833 822 1013 l 822 209 q 735 0 822 28 l 127 0 m 480 296 l 480 746 l 380 746 l 380 296 l 480 296 m 643 1303 q 690 1249 692 1286 l 655 1118 q 586 1095 637 1085 l 225 1192 q 178 1246 176 1210 l 213 1378 q 282 1401 231 1411 l 643 1303 z "},"Ó":{"ha":863,"x_min":41,"x_max":822,"o":"m 127 0 q 41 209 41 28 l 41 833 q 127 1042 41 1013 l 735 1042 q 822 833 822 1013 l 822 209 q 735 0 822 28 l 127 0 m 480 296 l 480 746 l 380 746 l 380 296 l 480 296 m 225 1303 l 586 1401 q 655 1378 637 1411 l 690 1246 q 643 1192 692 1210 l 282 1095 q 213 1118 231 1085 l 178 1249 q 225 1303 176 1286 z "},"Ô":{"ha":863,"x_min":41,"x_max":822,"o":"m 127 0 q 41 209 41 28 l 41 833 q 127 1042 41 1013 l 735 1042 q 822 833 822 1013 l 822 209 q 735 0 822 28 l 127 0 m 480 296 l 480 746 l 380 746 l 380 296 l 480 296 m 236 1303 l 393 1401 q 433 1405 416 1405 q 472 1401 449 1405 l 629 1303 q 673 1240 675 1282 l 642 1118 q 572 1095 618 1081 l 433 1181 l 293 1095 q 224 1118 247 1081 l 193 1240 q 236 1303 190 1282 z "},"Õ":{"ha":863,"x_min":41,"x_max":822,"o":"m 127 0 q 41 209 41 28 l 41 833 q 127 1042 41 1013 l 735 1042 q 822 833 822 1013 l 822 209 q 735 0 822 28 l 127 0 m 480 296 l 480 746 l 380 746 l 380 296 l 480 296 m 236 1299 l 334 1392 q 420 1394 377 1412 l 500 1316 l 570 1398 q 639 1375 616 1412 l 670 1253 q 627 1190 669 1218 l 540 1104 q 453 1107 496 1086 l 377 1179 l 304 1100 q 235 1123 258 1086 l 203 1226 q 236 1299 203 1275 z "},"Ö":{"ha":863,"x_min":41,"x_max":822,"o":"m 127 0 q 41 209 41 28 l 41 833 q 127 1042 41 1013 l 735 1042 q 822 833 822 1013 l 822 209 q 735 0 822 28 l 127 0 m 480 296 l 480 746 l 380 746 l 380 296 l 480 296 m 140 1097 q 102 1153 106 1104 l 102 1318 q 140 1374 106 1367 l 349 1374 q 387 1318 382 1367 l 387 1153 q 349 1097 382 1104 l 140 1097 m 517 1097 q 479 1153 483 1104 l 479 1318 q 517 1374 483 1367 l 726 1374 q 764 1318 760 1367 l 764 1153 q 726 1097 760 1104 l 517 1097 z "},"×":{"ha":629,"x_min":60,"x_max":570,"o":"m 536 479 q 549 408 570 441 l 429 288 q 358 301 397 267 l 315 343 l 271 301 q 201 288 233 267 l 80 408 q 94 479 60 439 l 136 522 l 94 566 q 80 636 60 604 l 201 757 q 271 743 232 777 l 315 701 l 358 743 q 429 757 396 777 l 549 636 q 536 566 570 605 l 494 522 l 536 479 z "},"Ø":{"ha":871,"x_min":41,"x_max":830,"o":"m 127 0 q 41 209 41 28 l 41 833 q 127 1042 41 1013 l 503 1042 l 509 1065 q 549 1126 524 1120 l 587 1126 q 628 1065 624 1118 l 623 1042 l 743 1042 q 830 833 830 1013 l 830 209 q 743 0 830 28 l 381 0 l 376 -23 q 335 -84 369 -75 l 297 -84 q 256 -23 260 -76 l 262 0 l 127 0 m 517 296 l 517 585 l 450 296 l 517 296 m 366 746 l 366 450 l 434 746 l 366 746 z "},"Ù":{"ha":863,"x_min":41,"x_max":822,"o":"m 127 0 q 41 209 41 28 l 41 982 q 81 1042 45 1034 l 339 1042 q 380 982 376 1034 l 380 296 l 480 296 l 480 982 q 521 1042 484 1034 l 781 1042 q 822 982 818 1034 l 822 209 q 735 0 822 28 l 127 0 m 643 1303 q 690 1249 692 1286 l 655 1118 q 586 1095 637 1085 l 225 1192 q 178 1246 176 1210 l 213 1378 q 282 1401 231 1411 l 643 1303 z "},"Ú":{"ha":863,"x_min":41,"x_max":822,"o":"m 127 0 q 41 209 41 28 l 41 982 q 81 1042 45 1034 l 339 1042 q 380 982 376 1034 l 380 296 l 480 296 l 480 982 q 521 1042 484 1034 l 781 1042 q 822 982 818 1034 l 822 209 q 735 0 822 28 l 127 0 m 225 1303 l 586 1401 q 655 1378 637 1411 l 690 1246 q 643 1192 692 1210 l 282 1095 q 213 1118 231 1085 l 178 1249 q 225 1303 176 1286 z "},"Û":{"ha":863,"x_min":41,"x_max":822,"o":"m 127 0 q 41 209 41 28 l 41 982 q 81 1042 45 1034 l 339 1042 q 380 982 376 1034 l 380 296 l 480 296 l 480 982 q 521 1042 484 1034 l 781 1042 q 822 982 818 1034 l 822 209 q 735 0 822 28 l 127 0 m 236 1303 l 393 1401 q 433 1405 416 1405 q 472 1401 449 1405 l 629 1303 q 673 1240 675 1282 l 642 1118 q 572 1095 618 1081 l 433 1181 l 293 1095 q 224 1118 247 1081 l 193 1240 q 236 1303 190 1282 z "},"Ü":{"ha":863,"x_min":41,"x_max":822,"o":"m 127 0 q 41 209 41 28 l 41 982 q 81 1042 45 1034 l 339 1042 q 380 982 376 1034 l 380 296 l 480 296 l 480 982 q 521 1042 484 1034 l 781 1042 q 822 982 818 1034 l 822 209 q 735 0 822 28 l 127 0 m 140 1097 q 102 1153 106 1104 l 102 1318 q 140 1374 106 1367 l 349 1374 q 387 1318 382 1367 l 387 1153 q 349 1097 382 1104 l 140 1097 m 517 1097 q 479 1153 483 1104 l 479 1318 q 517 1374 483 1367 l 726 1374 q 764 1318 760 1367 l 764 1153 q 726 1097 760 1104 l 517 1097 z "},"Ý":{"ha":854,"x_min":35,"x_max":819,"o":"m 477 982 q 518 1042 481 1034 l 779 1042 q 819 982 815 1034 l 765 624 q 597 439 741 506 l 597 60 q 556 0 593 8 l 296 0 q 255 60 259 8 l 255 441 q 90 624 114 507 l 35 982 q 76 1042 39 1034 l 336 1042 q 377 982 373 1034 l 429 651 l 477 982 m 220 1303 l 581 1401 q 650 1378 632 1411 l 685 1246 q 637 1192 686 1210 l 277 1095 q 208 1118 225 1085 l 172 1249 q 220 1303 171 1286 z "},"Þ":{"ha":863,"x_min":41,"x_max":822,"o":"m 81 0 q 41 60 45 8 l 41 982 q 81 1042 45 1034 l 342 1042 q 382 982 378 1034 l 382 952 l 692 952 q 791 804 761 951 q 822 552 821 658 l 822 491 q 791 237 821 384 q 692 90 761 91 l 382 90 l 382 60 q 342 0 378 8 l 81 0 m 480 583 q 450 656 479 654 l 382 656 l 382 385 l 450 385 q 480 458 479 388 l 480 583 z "},"ß":{"ha":871,"x_min":41,"x_max":830,"o":"m 483 749 l 382 749 l 382 648 l 453 648 q 483 681 479 651 l 483 749 m 41 643 q 71 894 42 747 q 171 1039 100 1040 l 735 1042 q 822 833 822 1013 l 822 665 q 667 521 810 557 q 830 377 818 484 l 830 209 q 743 0 830 28 l 486 0 q 426 41 434 4 l 426 252 q 486 293 434 289 l 491 293 l 491 361 q 461 393 487 391 l 382 393 l 382 0 q 342 -60 378 -52 l 81 -60 q 41 0 45 -52 l 41 643 z "},"à":{"ha":852,"x_min":35,"x_max":817,"o":"m 684 1042 q 760 977 742 1029 l 817 60 q 776 0 812 8 l 515 0 q 475 60 479 8 l 468 179 l 385 179 l 377 60 q 336 0 373 8 l 76 0 q 35 60 39 8 l 92 977 q 168 1042 110 1029 l 684 1042 m 437 751 l 420 751 l 400 396 l 454 396 l 437 751 m 635 1303 q 682 1249 684 1286 l 647 1118 q 578 1095 629 1085 l 217 1192 q 170 1246 168 1210 l 205 1378 q 274 1401 222 1411 l 635 1303 z "},"á":{"ha":852,"x_min":35,"x_max":817,"o":"m 684 1042 q 760 977 742 1029 l 817 60 q 776 0 812 8 l 515 0 q 475 60 479 8 l 468 179 l 385 179 l 377 60 q 336 0 373 8 l 76 0 q 35 60 39 8 l 92 977 q 168 1042 110 1029 l 684 1042 m 437 751 l 420 751 l 400 396 l 454 396 l 437 751 m 217 1303 l 578 1401 q 647 1378 629 1411 l 682 1246 q 635 1192 684 1210 l 274 1095 q 205 1118 222 1085 l 170 1249 q 217 1303 168 1286 z "},"â":{"ha":852,"x_min":35,"x_max":817,"o":"m 684 1042 q 760 977 742 1029 l 817 60 q 776 0 812 8 l 515 0 q 475 60 479 8 l 468 179 l 385 179 l 377 60 q 336 0 373 8 l 76 0 q 35 60 39 8 l 92 977 q 168 1042 110 1029 l 684 1042 m 437 751 l 420 751 l 400 396 l 454 396 l 437 751 m 228 1303 l 385 1401 q 425 1405 408 1405 q 464 1401 441 1405 l 621 1303 q 665 1240 667 1282 l 633 1118 q 564 1095 610 1081 l 425 1181 l 285 1095 q 216 1118 239 1081 l 184 1240 q 228 1303 182 1282 z "},"ã":{"ha":852,"x_min":35,"x_max":817,"o":"m 684 1042 q 760 977 742 1029 l 817 60 q 776 0 812 8 l 515 0 q 475 60 479 8 l 468 179 l 385 179 l 377 60 q 336 0 373 8 l 76 0 q 35 60 39 8 l 92 977 q 168 1042 110 1029 l 684 1042 m 437 751 l 420 751 l 400 396 l 454 396 l 437 751 m 228 1297 l 326 1389 q 412 1392 369 1409 l 492 1313 l 562 1396 q 631 1373 608 1409 l 662 1251 q 618 1187 661 1215 l 532 1101 q 445 1104 488 1084 l 369 1176 l 296 1097 q 227 1120 250 1084 l 195 1223 q 228 1297 195 1272 z "},"ä":{"ha":852,"x_min":35,"x_max":817,"o":"m 684 1042 q 760 977 742 1029 l 817 60 q 776 0 812 8 l 515 0 q 475 60 479 8 l 468 179 l 385 179 l 377 60 q 336 0 373 8 l 76 0 q 35 60 39 8 l 92 977 q 168 1042 110 1029 l 684 1042 m 437 751 l 420 751 l 400 396 l 454 396 l 437 751 m 134 1097 q 96 1153 100 1104 l 96 1318 q 134 1374 100 1367 l 343 1374 q 381 1318 377 1367 l 381 1153 q 343 1097 377 1104 l 134 1097 m 511 1097 q 473 1153 477 1104 l 473 1318 q 511 1374 477 1367 l 720 1374 q 758 1318 754 1367 l 758 1153 q 720 1097 754 1104 l 511 1097 z "},"å":{"ha":852,"x_min":35,"x_max":817,"o":"m 684 1042 q 760 977 742 1029 l 817 60 q 776 0 812 8 l 515 0 q 475 60 479 8 l 468 179 l 385 179 l 377 60 q 336 0 373 8 l 76 0 q 35 60 39 8 l 92 977 q 168 1042 110 1029 l 684 1042 m 437 751 l 420 751 l 400 396 l 454 396 l 437 751 m 307 1095 q 262 1161 266 1104 l 262 1355 q 307 1420 266 1411 l 551 1420 q 595 1355 591 1411 l 595 1161 q 551 1095 591 1104 l 307 1095 m 397 1215 l 460 1215 q 472 1232 471 1215 l 472 1283 q 460 1299 471 1299 l 397 1299 q 387 1283 387 1299 l 387 1232 q 397 1215 387 1215 z "},"æ":{"ha":1112,"x_min":24,"x_max":1072,"o":"m 410 751 l 403 648 l 491 648 l 491 751 l 410 751 m 385 393 l 366 60 q 326 0 362 8 l 65 0 q 24 60 28 8 l 81 977 q 157 1042 99 1029 l 1012 1042 q 1072 1001 1063 1038 l 1072 787 q 1012 746 1063 750 l 831 746 l 831 648 l 955 648 q 1015 608 1006 644 l 1015 434 q 955 393 1006 397 l 831 393 l 831 296 l 1012 296 q 1072 255 1063 292 l 1072 41 q 1012 0 1063 4 l 532 0 q 491 60 495 8 l 491 393 l 385 393 z "},"ç":{"ha":863,"x_min":41,"x_max":822,"o":"m 41 833 q 127 1042 41 1013 l 735 1042 q 822 833 822 1013 l 822 667 q 781 608 818 616 l 521 608 q 480 667 484 616 l 480 746 l 380 746 l 380 296 l 480 296 l 480 374 q 521 434 484 426 l 781 434 q 822 374 818 426 l 822 209 q 735 0 822 28 l 623 0 q 632 -68 629 -30 l 632 -119 q 545 -328 632 -300 l 119 -328 q 60 -288 68 -324 l 60 -109 q 119 -68 68 -72 l 307 -68 l 307 -49 q 289 0 304 -22 l 127 0 q 41 209 41 28 l 41 833 z "},"è":{"ha":863,"x_min":41,"x_max":822,"o":"m 41 982 q 81 1042 45 1034 l 762 1042 q 822 1001 814 1038 l 822 787 q 762 746 814 750 l 381 746 l 381 648 l 705 648 q 765 608 757 644 l 765 434 q 705 393 757 397 l 381 393 l 381 296 l 762 296 q 822 255 814 292 l 822 41 q 762 0 814 4 l 81 0 q 41 60 45 8 l 41 982 m 640 1303 q 688 1249 689 1286 l 652 1118 q 583 1095 635 1085 l 222 1192 q 175 1246 174 1210 l 210 1378 q 279 1401 228 1411 l 640 1303 z "},"é":{"ha":863,"x_min":41,"x_max":822,"o":"m 41 982 q 81 1042 45 1034 l 762 1042 q 822 1001 814 1038 l 822 787 q 762 746 814 750 l 381 746 l 381 648 l 705 648 q 765 608 757 644 l 765 434 q 705 393 757 397 l 381 393 l 381 296 l 762 296 q 822 255 814 292 l 822 41 q 762 0 814 4 l 81 0 q 41 60 45 8 l 41 982 m 222 1303 l 583 1401 q 652 1378 635 1411 l 688 1246 q 640 1192 689 1210 l 279 1095 q 210 1118 228 1085 l 175 1249 q 222 1303 174 1286 z "},"ê":{"ha":863,"x_min":41,"x_max":822,"o":"m 41 982 q 81 1042 45 1034 l 762 1042 q 822 1001 814 1038 l 822 787 q 762 746 814 750 l 381 746 l 381 648 l 705 648 q 765 608 757 644 l 765 434 q 705 393 757 397 l 381 393 l 381 296 l 762 296 q 822 255 814 292 l 822 41 q 762 0 814 4 l 81 0 q 41 60 45 8 l 41 982 m 228 1297 l 326 1389 q 412 1392 369 1409 l 492 1313 l 562 1396 q 631 1373 608 1409 l 662 1251 q 618 1187 661 1215 l 532 1101 q 445 1104 488 1084 l 369 1176 l 296 1097 q 227 1120 250 1084 l 195 1223 q 228 1297 195 1272 z "},"ë":{"ha":863,"x_min":41,"x_max":822,"o":"m 41 982 q 81 1042 45 1034 l 762 1042 q 822 1001 814 1038 l 822 787 q 762 746 814 750 l 381 746 l 381 648 l 705 648 q 765 608 757 644 l 765 434 q 705 393 757 397 l 381 393 l 381 296 l 762 296 q 822 255 814 292 l 822 41 q 762 0 814 4 l 81 0 q 41 60 45 8 l 41 982 m 134 1097 q 96 1153 100 1104 l 96 1318 q 134 1374 100 1367 l 343 1374 q 381 1318 377 1367 l 381 1153 q 343 1097 377 1104 l 134 1097 m 511 1097 q 473 1153 477 1104 l 473 1318 q 511 1374 477 1367 l 720 1374 q 758 1318 754 1367 l 758 1153 q 720 1097 754 1104 l 511 1097 z "},"ì":{"ha":423,"x_min":22,"x_max":401,"o":"m 81 0 q 41 60 45 8 l 41 982 q 81 1042 45 1034 l 342 1042 q 382 982 378 1034 l 382 60 q 342 0 378 8 l 81 0 m 361 1303 q 400 1249 401 1286 l 373 1118 q 304 1095 355 1085 l 71 1192 q 23 1246 22 1210 l 58 1378 q 127 1401 76 1411 l 361 1303 z "},"í":{"ha":423,"x_min":22,"x_max":401,"o":"m 81 0 q 41 60 45 8 l 41 982 q 81 1042 45 1034 l 342 1042 q 382 982 378 1034 l 382 60 q 342 0 378 8 l 81 0 m 62 1303 l 296 1401 q 365 1378 347 1411 l 400 1246 q 353 1192 401 1210 l 119 1095 q 50 1118 68 1085 l 23 1249 q 62 1303 22 1286 z "},"î":{"ha":418,"x_min":-11,"x_max":429,"o":"m 81 0 q 41 60 45 8 l 41 982 q 81 1042 45 1034 l 342 1042 q 382 982 378 1034 l 382 60 q 342 0 378 8 l 81 0 m 33 1303 l 168 1400 q 209 1405 191 1405 q 250 1401 227 1405 l 385 1303 q 429 1240 429 1275 l 397 1118 q 328 1095 374 1081 l 209 1180 l 90 1095 q 20 1118 43 1081 l -11 1240 q 33 1303 -11 1275 z "},"ï":{"ha":415,"x_min":-114,"x_max":529,"o":"m 80 0 q 39 60 43 8 l 39 982 q 80 1042 43 1034 l 340 1042 q 381 982 377 1034 l 381 60 q 340 0 377 8 l 80 0 m -76 1097 q -114 1153 -110 1104 l -114 1318 q -76 1374 -110 1367 l 133 1374 q 171 1318 167 1367 l 171 1153 q 133 1097 167 1104 l -76 1097 m 282 1097 q 244 1153 248 1104 l 244 1318 q 282 1374 248 1367 l 491 1374 q 529 1318 525 1367 l 529 1153 q 491 1097 525 1104 l 282 1097 z "},"ð":{"ha":694,"x_min":0,"x_max":0,"o":""},"ñ":{"ha":863,"x_min":41,"x_max":822,"o":"m 81 0 q 41 60 45 8 l 41 982 q 81 1042 45 1034 l 331 1042 q 380 996 368 1035 l 480 735 l 480 982 q 521 1042 484 1034 l 781 1042 q 822 982 818 1034 l 822 60 q 781 0 818 8 l 532 0 q 483 46 495 7 l 382 307 l 382 60 q 342 0 378 8 l 81 0 m 231 1299 l 328 1392 q 415 1394 372 1412 l 495 1316 l 564 1398 q 633 1375 610 1412 l 665 1253 q 621 1190 663 1218 l 534 1104 q 448 1107 491 1086 l 372 1179 l 298 1100 q 229 1123 252 1086 l 198 1226 q 231 1299 198 1275 z "},"ò":{"ha":863,"x_min":41,"x_max":822,"o":"m 127 0 q 41 209 41 28 l 41 833 q 127 1042 41 1013 l 735 1042 q 822 833 822 1013 l 822 209 q 735 0 822 28 l 127 0 m 480 296 l 480 746 l 380 746 l 380 296 l 480 296 m 643 1303 q 690 1249 692 1286 l 655 1118 q 586 1095 637 1085 l 225 1192 q 178 1246 176 1210 l 213 1378 q 282 1401 231 1411 l 643 1303 z "},"ó":{"ha":863,"x_min":41,"x_max":822,"o":"m 127 0 q 41 209 41 28 l 41 833 q 127 1042 41 1013 l 735 1042 q 822 833 822 1013 l 822 209 q 735 0 822 28 l 127 0 m 480 296 l 480 746 l 380 746 l 380 296 l 480 296 m 225 1303 l 586 1401 q 655 1378 637 1411 l 690 1246 q 643 1192 692 1210 l 282 1095 q 213 1118 231 1085 l 178 1249 q 225 1303 176 1286 z "},"ô":{"ha":863,"x_min":41,"x_max":822,"o":"m 127 0 q 41 209 41 28 l 41 833 q 127 1042 41 1013 l 735 1042 q 822 833 822 1013 l 822 209 q 735 0 822 28 l 127 0 m 480 296 l 480 746 l 380 746 l 380 296 l 480 296 m 236 1303 l 393 1401 q 433 1405 416 1405 q 472 1401 449 1405 l 629 1303 q 673 1240 675 1282 l 642 1118 q 572 1095 618 1081 l 433 1181 l 293 1095 q 224 1118 247 1081 l 193 1240 q 236 1303 190 1282 z "},"õ":{"ha":863,"x_min":41,"x_max":822,"o":"m 127 0 q 41 209 41 28 l 41 833 q 127 1042 41 1013 l 735 1042 q 822 833 822 1013 l 822 209 q 735 0 822 28 l 127 0 m 480 296 l 480 746 l 380 746 l 380 296 l 480 296 m 236 1299 l 334 1392 q 420 1394 377 1412 l 500 1316 l 570 1398 q 639 1375 616 1412 l 670 1253 q 627 1190 669 1218 l 540 1104 q 453 1107 496 1086 l 377 1179 l 304 1100 q 235 1123 258 1086 l 203 1226 q 236 1299 203 1275 z "},"ö":{"ha":863,"x_min":41,"x_max":822,"o":"m 127 0 q 41 209 41 28 l 41 833 q 127 1042 41 1013 l 735 1042 q 822 833 822 1013 l 822 209 q 735 0 822 28 l 127 0 m 480 296 l 480 746 l 380 746 l 380 296 l 480 296 m 140 1097 q 102 1153 106 1104 l 102 1318 q 140 1374 106 1367 l 349 1374 q 387 1318 382 1367 l 387 1153 q 349 1097 382 1104 l 140 1097 m 517 1097 q 479 1153 483 1104 l 479 1318 q 517 1374 483 1367 l 726 1374 q 764 1318 760 1367 l 764 1153 q 726 1097 760 1104 l 517 1097 z "},"÷":{"ha":613,"x_min":60,"x_max":553,"o":"m 494 648 q 553 608 545 644 l 553 437 q 494 396 545 400 l 119 396 q 60 437 68 400 l 60 608 q 119 648 68 644 l 494 648 m 193 38 q 152 98 156 46 l 152 274 q 193 334 156 326 l 415 334 q 456 274 452 326 l 456 98 q 415 38 452 46 l 193 38 m 193 1006 l 415 1006 q 456 947 452 998 l 456 770 q 415 711 452 719 l 193 711 q 152 770 156 719 l 152 947 q 193 1006 156 998 z "},"ø":{"ha":871,"x_min":41,"x_max":830,"o":"m 127 0 q 41 209 41 28 l 41 833 q 127 1042 41 1013 l 503 1042 l 509 1065 q 549 1126 524 1120 l 587 1126 q 628 1065 624 1118 l 623 1042 l 743 1042 q 830 833 830 1013 l 830 209 q 743 0 830 28 l 381 0 l 376 -23 q 335 -84 369 -75 l 297 -84 q 256 -23 260 -76 l 262 0 l 127 0 m 517 296 l 517 585 l 450 296 l 517 296 m 366 746 l 366 450 l 434 746 l 366 746 z "},"ù":{"ha":863,"x_min":41,"x_max":822,"o":"m 127 0 q 41 209 41 28 l 41 982 q 81 1042 45 1034 l 339 1042 q 380 982 376 1034 l 380 296 l 480 296 l 480 982 q 521 1042 484 1034 l 781 1042 q 822 982 818 1034 l 822 209 q 735 0 822 28 l 127 0 m 643 1303 q 690 1249 692 1286 l 655 1118 q 586 1095 637 1085 l 225 1192 q 178 1246 176 1210 l 213 1378 q 282 1401 231 1411 l 643 1303 z "},"ú":{"ha":863,"x_min":41,"x_max":822,"o":"m 127 0 q 41 209 41 28 l 41 982 q 81 1042 45 1034 l 339 1042 q 380 982 376 1034 l 380 296 l 480 296 l 480 982 q 521 1042 484 1034 l 781 1042 q 822 982 818 1034 l 822 209 q 735 0 822 28 l 127 0 m 225 1303 l 586 1401 q 655 1378 637 1411 l 690 1246 q 643 1192 692 1210 l 282 1095 q 213 1118 231 1085 l 178 1249 q 225 1303 176 1286 z "},"û":{"ha":863,"x_min":41,"x_max":822,"o":"m 127 0 q 41 209 41 28 l 41 982 q 81 1042 45 1034 l 339 1042 q 380 982 376 1034 l 380 296 l 480 296 l 480 982 q 521 1042 484 1034 l 781 1042 q 822 982 818 1034 l 822 209 q 735 0 822 28 l 127 0 m 236 1303 l 393 1401 q 433 1405 416 1405 q 472 1401 449 1405 l 629 1303 q 673 1240 675 1282 l 642 1118 q 572 1095 618 1081 l 433 1181 l 293 1095 q 224 1118 247 1081 l 193 1240 q 236 1303 190 1282 z "},"ü":{"ha":863,"x_min":41,"x_max":822,"o":"m 127 0 q 41 209 41 28 l 41 982 q 81 1042 45 1034 l 339 1042 q 380 982 376 1034 l 380 296 l 480 296 l 480 982 q 521 1042 484 1034 l 781 1042 q 822 982 818 1034 l 822 209 q 735 0 822 28 l 127 0 m 140 1097 q 102 1153 106 1104 l 102 1318 q 140 1374 106 1367 l 349 1374 q 387 1318 382 1367 l 387 1153 q 349 1097 382 1104 l 140 1097 m 517 1097 q 479 1153 483 1104 l 479 1318 q 517 1374 483 1367 l 726 1374 q 764 1318 760 1367 l 764 1153 q 726 1097 760 1104 l 517 1097 z "},"ý":{"ha":854,"x_min":35,"x_max":819,"o":"m 477 982 q 518 1042 481 1034 l 779 1042 q 819 982 815 1034 l 765 624 q 597 439 741 506 l 597 60 q 556 0 593 8 l 296 0 q 255 60 259 8 l 255 441 q 90 624 114 507 l 35 982 q 76 1042 39 1034 l 336 1042 q 377 982 373 1034 l 429 651 l 477 982 m 220 1303 l 581 1401 q 650 1378 632 1411 l 685 1246 q 637 1192 686 1210 l 277 1095 q 208 1118 225 1085 l 172 1249 q 220 1303 171 1286 z "},"þ":{"ha":863,"x_min":41,"x_max":822,"o":"m 81 0 q 41 60 45 8 l 41 982 q 81 1042 45 1034 l 342 1042 q 382 982 378 1034 l 382 952 l 692 952 q 791 804 761 951 q 822 552 821 658 l 822 491 q 791 237 821 384 q 692 90 761 91 l 382 90 l 382 60 q 342 0 378 8 l 81 0 m 480 583 q 450 656 479 654 l 382 656 l 382 385 l 450 385 q 480 458 479 388 l 480 583 z "},"ÿ":{"ha":854,"x_min":35,"x_max":819,"o":"m 477 982 q 518 1042 481 1034 l 779 1042 q 819 982 815 1034 l 765 624 q 597 439 741 506 l 597 60 q 556 0 593 8 l 296 0 q 255 60 259 8 l 255 441 q 90 624 114 507 l 35 982 q 76 1042 39 1034 l 336 1042 q 377 982 373 1034 l 429 651 l 477 982 m 137 1097 q 99 1153 103 1104 l 99 1318 q 137 1374 103 1367 l 346 1374 q 384 1318 380 1367 l 384 1153 q 346 1097 380 1104 l 137 1097 m 514 1097 q 476 1153 480 1104 l 476 1318 q 514 1374 480 1367 l 723 1374 q 761 1318 757 1367 l 761 1153 q 723 1097 757 1104 l 514 1097 z "},"Œ":{"ha":694,"x_min":0,"x_max":0,"o":""},"œ":{"ha":694,"x_min":0,"x_max":0,"o":""},"Š":{"ha":863,"x_min":41,"x_max":822,"o":"m 41 749 l 41 833 q 127 1042 41 1013 l 735 1042 q 822 833 822 1013 l 822 705 q 781 646 818 654 l 521 646 q 480 705 484 654 l 480 749 l 382 749 l 382 705 q 399 661 382 671 l 772 498 q 822 293 815 453 l 822 209 q 735 0 822 28 l 127 0 q 41 209 41 28 l 41 336 q 81 396 45 388 l 342 396 q 382 336 378 388 l 382 293 l 480 293 l 480 336 q 464 381 480 370 l 91 544 q 41 749 47 589 m 228 1181 q 184 1245 182 1203 l 216 1367 q 285 1390 239 1404 l 425 1303 l 564 1390 q 633 1367 610 1404 l 665 1245 q 621 1181 667 1203 l 464 1084 q 425 1080 441 1080 q 385 1084 408 1080 l 228 1181 z "},"š":{"ha":863,"x_min":41,"x_max":822,"o":"m 41 749 l 41 833 q 127 1042 41 1013 l 735 1042 q 822 833 822 1013 l 822 705 q 781 646 818 654 l 521 646 q 480 705 484 654 l 480 749 l 382 749 l 382 705 q 399 661 382 671 l 772 498 q 822 293 815 453 l 822 209 q 735 0 822 28 l 127 0 q 41 209 41 28 l 41 336 q 81 396 45 388 l 342 396 q 382 336 378 388 l 382 293 l 480 293 l 480 336 q 464 381 480 370 l 91 544 q 41 749 47 589 m 228 1181 q 184 1245 182 1203 l 216 1367 q 285 1390 239 1404 l 425 1303 l 564 1390 q 633 1367 610 1404 l 665 1245 q 621 1181 667 1203 l 464 1084 q 425 1080 441 1080 q 385 1084 408 1080 l 228 1181 z "},"Ÿ":{"ha":854,"x_min":35,"x_max":819,"o":"m 477 982 q 518 1042 481 1034 l 779 1042 q 819 982 815 1034 l 765 624 q 597 439 741 506 l 597 60 q 556 0 593 8 l 296 0 q 255 60 259 8 l 255 441 q 90 624 114 507 l 35 982 q 76 1042 39 1034 l 336 1042 q 377 982 373 1034 l 429 651 l 477 982 m 137 1097 q 99 1153 103 1104 l 99 1318 q 137 1374 103 1367 l 346 1374 q 384 1318 380 1367 l 384 1153 q 346 1097 380 1104 l 137 1097 m 514 1097 q 476 1153 480 1104 l 476 1318 q 514 1374 480 1367 l 723 1374 q 761 1318 757 1367 l 761 1153 q 723 1097 757 1104 l 514 1097 z "},"Ž":{"ha":694,"x_min":0,"x_max":0,"o":""},"ž":{"ha":694,"x_min":0,"x_max":0,"o":""},"ƒ":{"ha":694,"x_min":0,"x_max":0,"o":""},"ˆ":{"ha":849,"x_min":182,"x_max":667,"o":"m 228 1303 l 385 1401 q 425 1405 408 1405 q 464 1401 441 1405 l 621 1303 q 665 1240 667 1282 l 633 1118 q 564 1095 610 1081 l 425 1181 l 285 1095 q 216 1118 239 1081 l 184 1240 q 228 1303 182 1282 z "},"˜":{"ha":857,"x_min":195,"x_max":662,"o":"m 228 1297 l 326 1389 q 412 1392 369 1409 l 492 1313 l 562 1396 q 631 1373 608 1409 l 662 1251 q 618 1187 661 1215 l 532 1101 q 445 1104 488 1084 l 369 1176 l 296 1097 q 227 1120 250 1084 l 195 1223 q 228 1297 195 1272 z "},"–":{"ha":694,"x_min":0,"x_max":0,"o":""},"—":{"ha":694,"x_min":0,"x_max":0,"o":""},"‘":{"ha":385,"x_min":41,"x_max":345,"o":"m 81 1120 l 130 1120 l 304 1042 q 345 982 340 1034 l 345 806 q 304 746 340 754 l 81 746 q 41 806 45 754 l 41 1061 q 81 1120 45 1112 z "},"’":{"ha":385,"x_min":41,"x_max":345,"o":"m 304 746 l 255 746 l 81 825 q 41 884 45 833 l 41 1061 q 81 1120 45 1112 l 304 1120 q 345 1061 340 1112 l 345 806 q 304 746 340 754 z "},"‚":{"ha":694,"x_min":0,"x_max":0,"o":""},"“":{"ha":632,"x_min":41,"x_max":591,"o":"m 81 1120 l 100 1120 l 255 1042 q 296 982 292 1034 l 296 806 q 255 746 292 754 l 81 746 q 41 806 45 754 l 41 1061 q 81 1120 45 1112 m 377 1120 l 396 1120 l 551 1042 q 591 982 587 1034 l 591 806 q 551 746 587 754 l 377 746 q 336 806 340 754 l 336 1061 q 377 1120 340 1112 z "},"”":{"ha":632,"x_min":41,"x_max":591,"o":"m 551 746 l 532 746 l 377 825 q 336 884 340 833 l 336 1061 q 377 1120 340 1112 l 551 1120 q 591 1061 587 1112 l 591 806 q 551 746 587 754 m 255 746 l 236 746 l 81 825 q 41 884 45 833 l 41 1061 q 81 1120 45 1112 l 255 1120 q 296 1061 292 1112 l 296 806 q 255 746 292 754 z "},"„":{"ha":632,"x_min":41,"x_max":591,"o":"m 551 -79 l 532 -79 l 377 0 q 336 60 340 8 l 336 236 q 377 296 340 288 l 551 296 q 591 236 587 288 l 591 -19 q 551 -79 587 -71 m 255 -79 l 236 -79 l 81 0 q 41 60 45 8 l 41 236 q 81 296 45 288 l 255 296 q 296 236 292 288 l 296 -19 q 255 -79 292 -71 z "},"†":{"ha":694,"x_min":0,"x_max":0,"o":""},"‡":{"ha":694,"x_min":0,"x_max":0,"o":""},"•":{"ha":694,"x_min":0,"x_max":0,"o":""},"…":{"ha":694,"x_min":0,"x_max":0,"o":""},"‰":{"ha":694,"x_min":0,"x_max":0,"o":""},"‹":{"ha":694,"x_min":0,"x_max":0,"o":""},"›":{"ha":694,"x_min":0,"x_max":0,"o":""},"€":{"ha":949,"x_min":33,"x_max":906,"o":"m 119 833 q 206 1042 119 1013 l 819 1042 q 906 833 906 1013 l 906 667 q 865 608 902 616 l 605 608 q 564 667 568 616 l 564 746 l 458 746 l 458 722 l 469 722 q 529 681 521 718 l 529 589 q 469 548 521 552 l 458 548 l 458 496 l 467 496 q 526 456 518 492 l 526 363 q 467 323 518 327 l 458 323 l 458 296 l 564 296 l 564 374 q 605 434 568 426 l 865 434 q 906 374 902 426 l 906 209 q 819 0 906 28 l 206 0 q 119 209 119 28 l 119 323 l 92 323 q 33 363 41 327 l 33 456 q 92 496 41 492 l 119 496 l 119 548 l 95 548 q 35 589 43 552 l 35 681 q 95 722 43 718 l 119 722 l 119 833 z "},"™":{"ha":694,"x_min":0,"x_max":0,"o":""},"∙":{"ha":694,"x_min":0,"x_max":0,"o":""}}}
